<svg xmlns="http://www.w3.org/2000/svg" viewBox="457.891 172 220.266 181.547">
  <path fill="#667eea" d="M505.622 317.235h-36.97v-109.09h37.71c10.833 0 20.147 2.173 27.94 6.52 7.793 4.353 13.787 10.597 17.98 18.73 4.187 8.133 6.28 17.863 6.28 29.19 0 11.36-2.103 21.123-6.31 29.29-4.207 8.173-10.26 14.443-18.16 18.81-7.9 4.367-17.39 6.55-28.47 6.55zm-17.21-91.99v74.89h16.25c7.6 0 13.937-1.393 19.01-4.18 5.08-2.787 8.9-6.96 11.46-12.52 2.553-5.553 3.83-12.503 3.83-20.85 0-8.347-1.277-15.28-3.83-20.8-2.56-5.527-6.333-9.663-11.32-12.41-4.993-2.753-11.183-4.13-18.57-4.13h-16.83zm108.661 91.99h-19.76v-109.09h19.76v46.18h50.55v-46.18h19.82v109.09h-19.82v-46.34h-50.55v46.34z" style="white-space:pre"/>
</svg>
